<!--
  ~ Copyright 2022 MONAI Consortium
  ~
  ~ Licensed under the Apache License, Version 2.0 (the "License");
  ~ you may not use this file except in compliance with the License.
  ~ You may obtain a copy of the License at
  ~
  ~ http://www.apache.org/licenses/LICENSE-2.0
  ~
  ~ Unless required by applicable law or agreed to in writing, software
  ~ distributed under the License is distributed on an "AS IS" BASIS,
  ~ WITHOUT WARRANTIES OR CONDITIONS OF ANY KIND, either express or implied.
  ~ See the License for the specific language governing permissions and
  ~ limitations under the License.
-->

<svg id="ff019186-8a78-47d9-90d0-b6d566561356" data-name="Layer 1" xmlns="http://www.w3.org/2000/svg" viewBox="0 0 1200 380"><title>MONAI-logo</title><path d="M75.79,119.9c-3.63-4.57-7.05-8.89-13.41-8.89C56.2,111,51,116.52,51,123V327.11a11.55,11.55,0,0,0,23.1,0v-172" style="fill:#98d9d5"/><path d="M159.24,259.19a9.49,9.49,0,0,1-7.3-3.61L74.08,155.11l1.71-35.21.79,1,83.24,109.16" style="fill:#5dc1b7"/><path d="M241.26,118.6c-.78,1-1.53,2-2.25,3L159.82,230.05l-.58,29.14a10.18,10.18,0,0,0,8-4l74-99.77" style="fill:#5dc1b7"/><path d="M241.26,118.6c3.36-4.21,7.27-7.59,12.34-7.59,6.13,0,10.76,4.9,10.76,11.4v204.7a11.55,11.55,0,0,1-23.1,0V155.41" style="fill:#5dc1b7"/><path d="M604.16,153.07,745.91,331.68c4.22,5.64,8.72,6.82,11.75,6.82,6.34,0,10.45-4.35,10.45-11.08V121.78A10.65,10.65,0,0,0,757.34,111c-6.49,0-11.39,4.63-11.39,10.77V295.51L605.09,118.07" style="fill:#5dc1b7"/><path d="M605.09,118.07c-2.43-3-6.31-7.06-12-7.06-6.42,0-11.08,4.53-11.08,10.77v206a10.65,10.65,0,0,0,10.77,10.77c6.49,0,11.39-4.63,11.39-10.77V153.07Z" style="fill:#98d9d5"/><path d="M1068.16,111c-6.74,0-12,4.87-12,11.08v205a11.55,11.55,0,0,0,23.1,0v-205A11.24,11.24,0,0,0,1068.16,111Z" style="fill:#98d9d5"/><path d="M1141.34,73.83h-24.65V49.18A7.69,7.69,0,0,0,1109,41.5h-.81a7.69,7.69,0,0,0-7.68,7.68V73.83H1076a7.84,7.84,0,0,0,0,15.67h24.49v25a7.69,7.69,0,0,0,7.68,7.68h.81a7.69,7.69,0,0,0,7.68-7.68v-25h24.65a7.69,7.69,0,0,0,7.68-7.67A7.77,7.77,0,0,0,1141.34,73.83Z" style="fill:#5dc1b7"/><path d="M856.44,262.32l-30,69.7a11,11,0,0,1-21-4.6,14.08,14.08,0,0,1,.77-4.06L896,118.41c2.24-5,6.52-8,11.46-8v34.14Z" style="fill:#98d9d5"/><path d="M473.91,114.71a10.36,10.36,0,0,0-7.37-3H381.75a10.36,10.36,0,0,0-7.38,3l-59.95,60a10.36,10.36,0,0,0-3.06,7.37v84.79a10.35,10.35,0,0,0,3.06,7.37l59.95,60a10.37,10.37,0,0,0,7.38,3.06h84.79a10.36,10.36,0,0,0,7.37-3.06l60-60a10.34,10.34,0,0,0,3-7.37V182a10.36,10.36,0,0,0-3-7.37Zm42.16,71.65v76.15l-53.85,53.85H386.06l-53.84-53.85V186.36l53.84-53.85h76.16Z" style="fill:#5dc1b7"/><line x1="392.87" y1="148.94" x2="348.64" y2="255.71" style="fill:none;stroke:#5dc1b7;stroke-linecap:round;stroke-linejoin:round;stroke-width:1.90355955119923px"/><line x1="392.87" y1="148.94" x2="499.64" y2="193.16" style="fill:none;stroke:#5dc1b7;stroke-linecap:round;stroke-linejoin:round;stroke-width:1.90355955119923px"/><line x1="499.64" y1="255.71" x2="455.41" y2="148.94" style="fill:none;stroke:#5dc1b7;stroke-linecap:round;stroke-linejoin:round;stroke-width:1.90355955119923px"/><line x1="499.64" y1="255.71" x2="392.87" y2="299.94" style="fill:none;stroke:#5dc1b7;stroke-linecap:round;stroke-linejoin:round;stroke-width:1.90355955119923px"/><line x1="455.41" y1="299.94" x2="348.64" y2="255.71" style="fill:none;stroke:#5dc1b7;stroke-linecap:round;stroke-linejoin:round;stroke-width:1.90355955119923px"/><line x1="455.41" y1="299.94" x2="499.64" y2="193.16" style="fill:none;stroke:#5dc1b7;stroke-linecap:round;stroke-linejoin:round;stroke-width:1.90355955119923px"/><line x1="348.64" y1="193.16" x2="499.64" y2="193.16" style="fill:none;stroke:#98d9d5;stroke-linecap:round;stroke-linejoin:round;stroke-width:1.90355955119923px"/><line x1="348.64" y1="193.16" x2="455.41" y2="148.94" style="fill:none;stroke:#5dc1b7;stroke-linecap:round;stroke-linejoin:round;stroke-width:1.90355955119923px"/><line x1="348.64" y1="193.16" x2="392.87" y2="299.94" style="fill:none;stroke:#5dc1b7;stroke-linecap:round;stroke-linejoin:round;stroke-width:1.90355955119923px"/><line x1="348.64" y1="193.16" x2="499.64" y2="255.71" style="fill:none;stroke:#98d9d5;stroke-linecap:round;stroke-linejoin:round;stroke-width:1.90355955119923px"/><line x1="348.64" y1="193.16" x2="455.41" y2="299.94" style="fill:none;stroke:#98d9d5;stroke-linecap:round;stroke-linejoin:round;stroke-width:1.90355955119923px"/><line x1="392.87" y1="148.94" x2="392.87" y2="299.94" style="fill:none;stroke:#98d9d5;stroke-linecap:round;stroke-linejoin:round;stroke-width:1.90355955119923px"/><line x1="392.87" y1="148.94" x2="455.41" y2="299.94" style="fill:none;stroke:#98d9d5;stroke-linecap:round;stroke-linejoin:round;stroke-width:1.90355955119923px"/><line x1="392.87" y1="148.94" x2="499.64" y2="255.71" style="fill:none;stroke:#98d9d5;stroke-linecap:round;stroke-linejoin:round;stroke-width:1.90355955119923px"/><line x1="455.41" y1="148.94" x2="348.64" y2="255.71" style="fill:none;stroke:#98d9d5;stroke-linecap:round;stroke-linejoin:round;stroke-width:1.90355955119923px"/><line x1="455.41" y1="148.94" x2="392.87" y2="299.94" style="fill:none;stroke:#98d9d5;stroke-linecap:round;stroke-linejoin:round;stroke-width:1.90355955119923px"/><line x1="455.41" y1="148.94" x2="455.41" y2="299.94" style="fill:none;stroke:#98d9d5;stroke-linecap:round;stroke-linejoin:round;stroke-width:1.90355955119923px"/><line x1="499.64" y1="193.16" x2="348.64" y2="255.71" style="fill:none;stroke:#98d9d5;stroke-linecap:round;stroke-linejoin:round;stroke-width:1.90355955119923px"/><line x1="499.64" y1="255.71" x2="348.64" y2="255.71" style="fill:none;stroke:#98d9d5;stroke-linecap:round;stroke-linejoin:round;stroke-width:1.90355955119923px"/><line x1="392.87" y1="299.94" x2="499.64" y2="193.16" style="fill:none;stroke:#98d9d5;stroke-linecap:round;stroke-linejoin:round;stroke-width:1.90355955119923px"/><circle cx="348.64" cy="193.16" r="5.3" style="fill:#5dc1b7"/><circle cx="348.64" cy="255.71" r="5.3" style="fill:#5dc1b7"/><circle cx="392.87" cy="299.94" r="5.3" style="fill:#5dc1b7"/><circle cx="455.41" cy="299.94" r="5.3" style="fill:#5dc1b7"/><circle cx="499.65" cy="255.71" r="5.3" style="fill:#5dc1b7"/><circle cx="499.65" cy="193.17" r="5.3" style="fill:#5dc1b7"/><circle cx="455.41" cy="148.94" r="5.3" style="fill:#5dc1b7"/><circle cx="392.88" cy="148.94" r="5.3" style="fill:#5dc1b7"/><path d="M1008.61,322.8,919.26,118.4a12.75,12.75,0,0,0-11.77-8v34.14l-.15.36,41.15,95.28H866.05l-9.61,22.15H957.91l30,69.74a10.94,10.94,0,0,0,10.2,6.44,11.84,11.84,0,0,0,11.39-11.39A14.38,14.38,0,0,0,1008.61,322.8Z" style="fill:#5dc1b7"/></svg>